<svg id="Layer_1" data-name="Layer 1" xmlns="http://www.w3.org/2000/svg" viewBox="0 0 79.01 79.36"><title>prabhSidhu</title><g id="_Group_" data-name="&lt;Group&gt;"><g id="_Group_2" data-name="&lt;Group&gt;"><path d="M6.65,29a21.72,21.72,0,0,1,1.79-8.81A22.83,22.83,0,0,1,13.37,13a23.09,23.09,0,0,1,7.3-4.86A22.63,22.63,0,0,1,29.6,6.35a22.66,22.66,0,0,1,8.93,1.77A23.2,23.2,0,0,1,45.83,13a22.64,22.64,0,0,1,4.92,7.21A21.73,21.73,0,0,1,52.55,29a21.73,21.73,0,0,1-1.8,8.81A22.64,22.64,0,0,1,45.83,45a23.35,23.35,0,0,1-7.3,4.85,22.66,22.66,0,0,1-8.93,1.77,22,22,0,0,1-9.77-2.47,18.12,18.12,0,0,1-7.34-6.25V66H6.65Zm5.84,0a16.36,16.36,0,0,0,1.33,6.55,17.18,17.18,0,0,0,31.55,0,16.68,16.68,0,0,0,0-13.1,16.79,16.79,0,0,0-3.67-5.39,17.24,17.24,0,0,0-24.2,0,16.82,16.82,0,0,0-3.68,5.39A16.32,16.32,0,0,0,12.49,29Z" transform="translate(-6.65 -6.35)"/></g></g><g id="_Group_3" data-name="&lt;Group&gt;"><g id="_Group_4" data-name="&lt;Group&gt;"><path d="M68.42,32.11a6.51,6.51,0,0,0-4.69-1.89,6.5,6.5,0,0,0-6.52,6.48,6.1,6.1,0,0,0,1.92,4.5Q60.6,42.73,64.59,43a20.64,20.64,0,0,1,7,1.57,20.92,20.92,0,0,1,10,7.72,20.29,20.29,0,0,1,4,12.18,20.06,20.06,0,0,1-6.44,15,21.35,21.35,0,0,1-15.45,6.27A21.69,21.69,0,0,1,41.89,64h5.83A15.89,15.89,0,0,0,63.77,80a15.46,15.46,0,0,0,11.29-4.58,15.14,15.14,0,0,0,0-21.95,16.41,16.41,0,0,0-10.8-4.89q-6-.3-8.64-2.63A4.39,4.39,0,0,1,55,45.3a11.44,11.44,0,0,1-3.62-8.6A11.66,11.66,0,0,1,55,28.05a11.91,11.91,0,0,1,8.72-3.58,12.34,12.34,0,0,1,8.85,3.58l2.24,2.21L69.8,34A6.2,6.2,0,0,0,68.42,32.11Z" transform="translate(-6.65 -6.35)"/></g></g></svg>